<svg width="1921" height="550" viewBox="0 0 1921 550" fill="none" xmlns="http://www.w3.org/2000/svg">
<mask id="mask0_10989_216" style="mask-type:alpha" maskUnits="userSpaceOnUse" x="0" y="0" width="1921" height="550">
<rect x="0.0566406" y="0.886719" width="1920" height="549" fill="#D9D9D9"/>
</mask>
<g mask="url(#mask0_10989_216)">
<path opacity="0.1" d="M950.965 438.16L616.84 772.285L943.676 1099.12L1277.8 764.996L950.965 438.16Z" fill="#195A60"/>
<path d="M242.015 62.9443L909.926 730.855L759.487 881.294L91.5762 213.383L242.015 62.9443Z" fill="url(#paint0_linear_10989_216)" fill-opacity="0.15"/>
<path d="M1651.46 63.7571L984.359 730.855L1134.8 881.294L1801.9 214.196L1651.46 63.7571Z" fill="url(#paint1_linear_10989_216)" fill-opacity="0.15"/>
<path d="M1208.33 171.878L2048.05 1011.6L1918.87 1140.78L1079.15 301.063L1208.33 171.878Z" fill="url(#paint2_linear_10989_216)" fill-opacity="0.15"/>
<path d="M656.183 200.626L150.418 706.391L279.603 835.576L785.368 329.811L656.183 200.626Z" fill="url(#paint3_linear_10989_216)" fill-opacity="0.15"/>
</g>
<defs>
<linearGradient id="paint0_linear_10989_216" x1="596.161" y1="567.529" x2="166.795" y2="138.163" gradientUnits="userSpaceOnUse">
<stop stop-color="#227C83"/>
<stop offset="1" stop-color="#17494D"/>
</linearGradient>
<linearGradient id="paint1_linear_10989_216" x1="1297.83" y1="567.819" x2="1726.68" y2="138.976" gradientUnits="userSpaceOnUse">
<stop stop-color="#227C83"/>
<stop offset="1" stop-color="#17494D"/>
</linearGradient>
<linearGradient id="paint2_linear_10989_216" x1="1683.55" y1="776.282" x2="1143.74" y2="236.47" gradientUnits="userSpaceOnUse">
<stop stop-color="#227C83"/>
<stop offset="1" stop-color="#17494D"/>
</linearGradient>
<linearGradient id="paint3_linear_10989_216" x1="395.646" y1="590.348" x2="720.776" y2="265.218" gradientUnits="userSpaceOnUse">
<stop stop-color="#227C83"/>
<stop offset="1" stop-color="#17494D"/>
</linearGradient>
</defs>
</svg>
